<?xml version="1.0" encoding="UTF-8"?>
<svg width="700pt" height="700pt" version="1.0" viewBox="0 0 700 700" xmlns="http://www.w3.org/2000/svg">
<metadata>Created by potrace 1.12, written by Peter Selinger 2001-2015</metadata>
<g transform="translate(0 700) scale(.1 -.1)">
<path d="m3431 6820-24-5 27-13c15-6 32-12 37-12 22 0 40-29 33-55-8-31-18-32-32-2-11 22-11 22-11-4-1-37-37-46-70-16l-24 22 12-22c18-35 13-41-34-39-39 1-48 5-60 30-14 26-14 30 1 41s15 13-7 28c-31 22-63 23-55 1 3-9 6-20 6-25 0-4 7-6 15-3 11 4 13 2 9-9-3-8 0-18 5-22 6-3 9-11 5-16-3-5-10-7-15-4-5 4-9-3-9-14 0-12-6-21-14-21-14 0-29-28-25-46 3-19-1-34-10-34-12 0-20 81-9 103 5 9 19 17 31 17 22 0 22 1-3 20-30 24-41 25-34 5 4-8 1-21-5-28-6-8-12-23-14-34-1-11-9-27-17-36-37-38-51-60-46-72 2-7-2-21-9-32-8-10-15-21-15-25 0-14 70-9 128 9 44 13 99 17 239 17 130 1 183 4 183 12 0 7 7 14 15 18 9 3 15 18 15 36 0 17 5 40 10 51 12 22-8 27-28 7-9-9-12-7-12 10 0 16 6 22 21 22 16 0 20 5 17 27-4 39-38 44-39 6l-1-28-10 33c-6 17-17 32-24 32-8 0-14 5-14 11 0 8-5 7-15-1-13-11-20-9-40 10-14 13-25 29-25 36 0 15-28 22-59 14zm149-125c0-14-4-25-10-25-11 0-14 33-3 43 11 11 13 8 13-18zm-80-35c0-5-5-10-11-10-5 0-7 5-4 10 3 6 8 10 11 10 2 0 4-4 4-10zm-230-25c0-8-4-15-10-15-5 0-10 7-10 15s5 15 10 15c6 0 10-7 10-15zm-100-85c0-5-5-10-11-10-5 0-7 5-4 10 3 6 8 10 11 10 2 0 4-4 4-10z"/>
<path d="m3575 6803c15-31 32-49 40-41 3 2-9 20-26 39l-30 34 16-32z"/>
<path d="m3060 6791c0-10-3-26-6-34s2-17 11-21c9-3 13-2 10 3s-1 12 4 15c10 7 3 43-10 52-5 3-9-4-9-15z"/>
<path d="m3110 6770c-12-8-12-10 3-16 21-8 35 2 21 16-5 5-15 6-24 0z"/>
<path d="m3745 6740c-19-8-19-9 3-9 12-1 22 4 22 9 0 6-1 10-2 9-2 0-12-4-23-9z"/>
<path d="m3065 6700c3-5 8-10 11-10 2 0 4 5 4 10 0 6-5 10-11 10-5 0-7-4-4-10z"/>
<path d="m3737 6633c-3-5-4-20-2-35 2-16-5-38-17-53-18-23-18-26-3-31 9-4 20-3 25 2 13 14 23 111 11 118-5 4-12 3-14-1z"/>
<path d="m3681 6604c0-11 3-14 6-6 3 7 2 16-1 19-3 4-6-2-5-13z"/>
<path d="m3676 6544c-4-9-4-19-1-22 2-3 7 3 11 12s4 19 1 22c-2 3-7-3-11-12z"/>
<path d="m4315 5980c3-5 13-10 21-10s14 5 14 10c0 6-9 10-21 10-11 0-17-4-14-10z"/>
<path d="m2836 5875c8-19 15-19 40 0 18 14 17 14-13 15-25 0-31-4-27-15z"/>
<path d="m4280 5882c0-6 6-15 13-19 8-4 17-16 20-26 4-11 16-21 27-24 19-5 20-6 3-19-12-9-14-13-5-14 7 0 29-12 48-26 29-23 32-29 22-43-8-10-5-9 10 3 27 23 36 16 39-32 2-39 25-76 62-101 23-15 23-14 17 7-6 18-4 21 9 16 9-4 21-16 26-28 5-11 15-29 21-39 11-15 10-20-6-32-14-11-23-12-33-4-8 7-13 8-13 1 0-17 25-31 46-26 29 8 48-20 49-72 1-48-1-50-29-29-17 13-22 13-40-3-10-9-16-12-12-5 9 17-28 35-58 27-33-8-66 4-66 24-1 16-2 15-14-1-13-16-14-16-29 5-13 20-18 21-36 11-28-18-86-16-101 2-7 8-19 15-26 15-8 0-14 5-14 10 0 14-33 13-48-2-9-9-16-8-29 5-16 16-16 17 5 17 13 0 20 4 17 10s-17 10-30 10-27 5-30 10c-5 8-12 7-22-2-13-10-18-9-32 9-23 28-74 27-65 0 5-15 2-18-13-13-10 3-35-3-56-14-20-11-37-17-37-14 0 4-6 1-13-5-16-13-28-5-20 15 10 26-74 23-97-4-8-9-24-18-35-20s-29-5-40-8c-72-16-85-16-85 1 0 12-5 15-22 9-13-3-24-11-26-15-5-12-32-11-32 1 0 5-7 7-15 4-10-4-15 0-15 11 0 13-6 16-25 11-14-4-31-3-38 1-6 4-23 7-37 7-15 1-25 7-25 16 0 10 8 14 23 12 28-4 29 9 2 26-23 14-40 8-40-14 0-11-9-13-41-8-27 5-44 3-48-5-12-18-71-3-64 17 5 12 2 14-12 9-9-4-24-2-31 4-17 14-48-7-40-27 4-10-1-11-19-4-15 6-25 5-27-1-2-5-13-11-25-12-31-2-39-37-8-37 30 0 41-17 17-25-21-6-52 3-52 15s-62-7-72-22c-6-10-8-10-8 0 0 6-8 12-18 12s-23 5-30 12c-9 9-13 7-18-6-5-14-14-16-44-11-33 6-38 4-45-17-4-13-6-29-6-35 1-7-3-13-9-13-5 0-10 5-10 12 0 6-3 8-6 5-4-3-14-2-23 2-11 6-30 3-55-10-22-10-46-19-53-19s-34-10-58-21c-25-12-49-19-52-15-3 3-12 1-19-5-8-7-14-7-19 1-4 7-12 7-24 0-10-5-21-6-25-3-10 10-7 83 4 83 6 0 10-7 10-15s5-15 10-15c6 0 10-7 10-15s3-15 6-15c9 0 49 54 46 62-1 5 6 8 16 8 24 0 72 51 54 57-6 3-10 9-6 14 3 5 1 9-5 9-5 0-13-9-16-20-8-25-25-16-25 13 0 25 44 77 64 77 8 0 16 7 20 15 3 8 12 15 20 15 7 0 16 9 19 20s13 20 24 20c10 0 31 13 46 30 16 16 31 29 35 28s15 2 25 6c21 10 23 30 1 22-40-15-64-18-64-6 0 7 7 10 15 6 20-7 18 4-5 32-11 13-24 21-30 17-6-3-10 3-10 15s-4 19-9 15c-5-3-12-1-16 5-9 14-25 13-25-2 0-7-6-21-14-30-10-13-19-15-42-8-16 4-21 9-12 9 16 1 35 37 25 47-8 8-37-8-37-21 0-7-22-36-50-63-53-53-53-63 3-77 15-4 26-12 24-19-3-6-10-10-17-8s-17-3-21-9c-6-10-11-10-21-1-8 6-23 9-34 6-16-4-19-12-16-33 3-24-2-30-42-51-30-15-46-30-46-42 0-10-7-18-15-18s-15 5-15 12c0 9-3 9-12 0s-8-16 5-30c15-16 15-20 1-40-8-12-24-22-35-22-12 0-19-7-19-20 0-12-7-20-17-21-13 0-11-3 7-10 22-9 23-12 9-22-29-21-48-123-21-112 21 8 13-14-11-30-35-23-51-62-33-81 21-21 44-17 52 9 4 12 17 33 30 46 27 27 30 39 10 47-15 6-10 44 6 44 5 0 6-5 3-10-9-15 21-23 42-12 9 6 18 21 18 33 0 33 35 39 36 7 0-13 3-17 6-10 7 17 23 15 23-3 0-8-4-15-10-15-5 0-10-5-10-10 0-6 7-6 19 1 10 7 27 9 37 5 18-7 18-8 1-21-11-8-25-11-33-8s-14 0-14-6-6-8-14-5-22-8-33-26-33-40-49-51c-17-11-23-19-14-19 23-1-59-29-115-39-27-5-84-19-125-31-111-32-134-36-128-18 3 7 0 22-8 33-18 24-18 102 0 157 8 24 22 70 31 103s20 65 25 70c4 6 10 22 14 38 3 15 11 27 16 27 6 0 10 11 10 25s-3 25-6 25-26-14-50-32c-34-25-41-34-33-45 9-10 7-18-6-33-10-11-15-20-10-20 4 0 2-7-5-15s-9-15-4-15 5-4-1-8c-16-12-47-68-86-157-11-27-23-44-26-37-8 21-20 13-26-15-3-16-8-37-12-48-3-11 1-8 10 8 8 15 20 27 25 27 15 0 25-23 11-28-8-3-9-8-1-17s7-17-3-27c-7-7-12-19-9-26 2-7 1-20-3-30-7-14-9-13-15 8-7 23-8 23-9 4-1-12-7-24-15-27-15-6-29-47-15-47 5 0 9-5 9-10 0-6-8-10-17-8-14 2-19-5-21-29-4-36 12-45 21-13 3 11 10 20 16 20 14 0 14-17 1-25-6-3-10-15-10-26 0-10-6-19-12-19-8 0-14-15-15-35-2-19 2-35 7-35 6 0 10 14 10 31 0 26 2 29 14 19 11-8 12-18 6-36-5-13-7-30-4-38s0-17-5-21c-6-3-9-11-5-16 10-17-5-59-21-59-8 0-15-4-15-10 0-5 6-10 14-10 16 0 9-50-8-50-6 0-4-6 5-13 8-7 15-21 15-32s4-35 8-54c6-23 5-31-2-27-21 13-35-45-34-139 1-19 24-168 37-230 6-27 3-32-34-49s-45-27-42-48c0-4-6-5-14-2-9 4-18-1-22-12-3-11-15-31-25-46-11-15-20-38-20-50-1-13-5-28-10-34-27-37-17-375 16-519 9-38 25-120 35-180 11-61 28-139 38-173 15-50 21-61 35-56 31 9 45-57 24-108-8-17 14-69 43-102 24-28 71-49 121-55 39-5 45-9 51-36 23-94 32-123 55-178 33-81 71-154 101-195 24-32 25-36 20-190-4-151-16-311-38-512-7-65-7-96 1-98 5-2 10-8 10-13 0-6-4-7-10-4-11 7-14-8-30-115s-51-302-57-320c-9-25-10-74-2-91 5-11 1-24-12-38-16-17-18-25-9-42 16-30 5-34-20-9-16 16-21 32-20 68 3 74 2 77-19 50-13-15-18-33-14-46 3-15 1-22-8-22-12 0-12-2 0-9 10-6 12-18 6-37-10-42-11-98-2-105 4-3 10-39 13-80 5-84 6-87 24-189 7-41 17-79 22-85 15-17 8-50-13-64-20-12-21-11-17 13 3 15 0 27-8 30-7 3-18 24-24 46-9 35-14 39-26 30-8-7-14-19-14-26 0-8-7-14-15-14-10 0-15 11-15 35 0 26-3 33-15 29-8-4-15-1-15 6 0 8 8 10 23 7 28-8 40 0 61 41 19 37 15 62-9 62-17 0-20-16-6-25 11-6-9-50-24-53-10-2-11 2-14 81 0 26-5 47-10 47-4 0-6-10-4-23 3-15-4-31-22-49-15-15-24-31-21-36 3-6-1-15-8-22-12-9-17-4-27 30-11 37-11 44 3 54 22 16 4 49-22 41-10-3-22 0-26 6-5 9-2 10 9 6 13-5 17-1 17 19 0 13-7 27-15 30-8 4-15 14-15 24s-6 23-14 29c-11 9-12 20-5 43 4 17 6 35 3 39-11 18-34 8-40-16-3-14-10-25-15-25s-9-11-9-24c0-14-5-28-10-31s-10-16-10-29c0-15-13-32-36-48-21-15-31-29-25-32 18-11 13-51-9-71-13-12-18-25-14-41 4-17 1-26-10-30-9-3-16-14-16-24s-7-23-15-30c-9-7-13-15-11-17 2-3-4-13-15-24-23-23-24-39-3-39 8 0 12-5 9-11-4-6-13-8-20-5-20 7-45-26-38-52 4-16 1-22-11-22-16 0-20-10-17-43 1-9-4-17-11-17-10 0-11-2 0-8 19-13 5-36-31-51-18-7-26-15-19-18 6-2 12-11 12-18s7-16 16-19 915-6 2014-6c1781 0 1998 2 2004 15 6 16 51 12 70-6 6-5 94-9 197-9 160 0 188 2 193 16 3 8 10 12 16 9 5-3 15-3 21 0 14 9-40 37-58 30-8-3-11 0-8 6 4 6 18 14 31 19 26 10 33 30 10 30-21 0-30 19-16 34 8 11 5 19-16 35-15 12-31 21-37 21-5 0-7 10-4 22 4 13-2 32-14 49-23 33-24 39-4 39 22 0 18 14-7 25-13 6-22 17-20 26 1 9-7 24-18 34s-20 26-20 35-12 22-26 29c-21 9-24 14-14 26 9 11 9 19-3 35-7 11-17 17-20 13-4-3-17 2-28 13-22 19-22 19-14-6l8-25-46 40 7-22c6-17 3-23-8-23-20 0-21-16-1-24 25-9 18-36-11-36-21 0-24-4-19-20 6-18 2-20-35-20-33 0-42-4-51-24-8-16-8-30-2-41 9-15 11-14 17 9 4 16 12 25 19 23s20 2 29 10c15 13 18 12 28-6 6-12 17-21 25-21s15-6 15-12c0-8-17-14-47-15-52-3-58-7-67-44-5-23-3-26 20-26 33 0 41-10 26-33-7-11-12-27-12-36 0-26-23-10-32 22-6 23-18 34-53 48-25 11-45 22-45 25 0 4 7 17 16 29 14 20 12 26-8 23-5 0-8 6-8 14 0 10 7 15 18 13 20-4 30 45 13 66-7 9-7 16 1 24 13 13 19 92 6 92-5 0-7 9-3 19 4 13 0 23-12 30-14 8-16 12-5 22 17 18 15 32-3 25-13-5-14-2-3 17 7 12 11 27 9 32-2 6-5 17-6 25-8 48-19 80-26 80-13 0-11-28 3-36 8-5 7-10-4-18-8-6-18-21-22-34-10-29-15-28-59 12-25 22-35 39-31 50 3 9 2 16-4 16-9 0-25-66-39-158-6-39-29-37-25 2 2 20-1 26-12 24-8-2-14 1-13 7 1 5 10 8 20 7 11-2 17 3 17 17 0 27-10 51-22 51-6 0-8-7-5-15 10-23-12-29-35-8-21 18-21 18-15-14 4-18 2-35-4-38-5-4-7-15-4-24 3-10 0-23-7-29-16-13-70-3-65 12 3 6-2 19-10 28-13 15-13 19 1 40 18 25 22 83 6 93-13 8-13 62-1 67 5 1 1 21-9 43-11 22-19 47-20 55 0 8-12 29-27 45l-28 29-5 296c-3 162-5 372-5 466v170l43 55c23 30 47 60 52 67 12 14 109 206 135 267 35 82 96 283 114 375 11 54 22 162 25 250 3 85 7 178 10 205 3 28 7 92 11 144 3 51 7 96 9 100 6 9 20 237 19 306-1 117-14 210-34 252-22 46-40 64-47 45-9-27-19-9-18 31 1 27-3 41-11 40-6-1-15 12-19 30-3 17-13 42-22 55-13 21-13 24 4 37 28 21 31 19 38-24 3-22 11-43 17-46 13-9 15-7 23 28 5 20 3 27-9 27-20 0-19 12 3 41 19 25 21 37 10 54-9 14 33 139 55 163 17 18 39 87 68 207 12 52 47 136 65 156 11 13 12 31 3 99-11 91-18 105-52 113-12 3-78 21-147 40s-152 41-185 48c-78 17-118 54-105 98 6 22 5 31-6 35-8 3-14 15-14 26s-9 28-20 37c-17 15-18 19-5 33 14 15 12 18-11 29-21 9-24 15-16 23 7 7 12 20 12 29s7 19 15 23c21 8 19 20-7 31-16 7-23 19-23 39-1 21-7 31-23 37-12 5-22 17-22 28s-9 22-20 26c-11 3-20 13-20 21s-11 26-25 40-25 30-25 36c0 7-5 6-15-2-12-10-15-10-15 3 0 10-6 13-20 10-16-4-20 0-20 18 0 23-48 63-77 64-6 0-15 4-19 8-14 14-25 7-19-13s-9-28-20-10c-3 6-15 10-27 10-16 0-19 5-15 26 3 20 1 24-11 19-8-3-25 3-36 14-25 23-76 38-76 23zm-1631-128 22-26-32-29c-37-33-66-25-35 10 12 13 15 27 10 45-8 33 6 33 35 0zm-89-24c0-5-9-10-20-10s-20 5-20 10c0 6 9 10 20 10s20-4 20-10zm1990-80c13-9 13-11 0-19-17-12-30-5-30 15 0 16 9 18 30 4zm125-30c3-5-1-10-9-10-9 0-16 5-16 10 0 6 4 10 9 10 6 0 13-4 16-10zm25-251c0-5-7-9-15-9-9 0-12 6-9 15 6 15 24 11 24-6zm25-39c3-5 2-10-4-10-5 0-13 5-16 10-3 6-2 10 4 10 5 0 13-4 16-10zm65-21c7-11 9-23 6-26-8-9-36 17-36 33 0 21 18 17 30-7zm-2370-20c0-5-7-9-15-9-15 0-20 12-9 23 8 8 24-1 24-14zm2411-54c-1-15-24-12-29 3-3 9 2 13 12 10 10-1 17-7 17-13zm-2641-79c0-14-28-42-35-34-2 2-2 14 2 26 6 24 33 31 33 8zm2738-102c77-31 146-82 175-132 14-24 22-30 28-21 5 9 15-2 31-36 21-45 23-64 22-195-1-129-4-154-28-228-60-184-128-248-294-277-97-17-132-19-132-6 0 4 27 11 60 15s62 11 65 15c2 5 20 12 38 15 30 6 34 10 29 31-3 18 0 25 12 25 9 0 16-5 16-12 0-6 3-9 6-6 3 4 0 16-6 28s-13 49-14 83c-3 56 0 65 27 99 17 21 35 38 41 38s36 32 65 71c30 39 65 78 78 86 21 14 23 21 18 62-12 88-32 184-34 164 0-7-21-40-44-75-24-35-63-99-87-143-60-112-91-144-89-92 1 12-6 72-15 132-27 182-27 185-16 185 6 0 4 12-5 30-8 16-15 36-15 46 0 9-14 37-31 62-24 35-27 47-17 53 22 14 46 10 116-17zm-2608-33c0-5-7-14-15-21-15-12-35-6-35 11 0 6 4 8 9 4 5-3 12-1 16 5 8 12 25 13 25 1zm-77-58c-3-21-15-59-26-86-16-38-22-45-33-36-8 6-14 30-15 53l-1 41-10-35c-5-19-13-39-17-45-18-23-39-146-45-265-2-44-18-27-51 52-37 88-36 110 9 201 29 60 73 106 131 136 57 30 65 28 58-16zm2437-63c0-5-5-10-11-10-5 0-7 5-4 10 3 6 8 10 11 10 2 0 4-4 4-10zm-2430-91c0-7-9-30-20-53s-26-74-33-115c-7-45-17-76-26-79-11-4-12 9-5 69 5 41 8 89 7 107-1 29 1 33 18 29 11-3 16-1 13 5-6 10 23 48 38 48 4 0 8-5 8-11zm-430-131c0-33-7-103-16-156-16-92-16-96 2-109 15-11 16-16 6-22-8-5-15-30-16-59s-5-55-9-59c-4-3-7-17-7-29 0-13-5-26-11-30-13-8-6 166 15 386 15 166 13 153 26 145 6-3 10-33 10-67zm1830-72c0-7 9-18 20-26s20-20 20-28c0-9 7-11 20-7s20 2 20-7c0-7 10-18 23-23 12-6 22-17 23-25s6-26 11-40c6-14 8-31 6-37-3-7 0-13 6-13 9 0 9-5 0-21-8-15-8-19 0-15 6 4 11 2 11-3 0-6-6-11-12-11-10 0-9-3 1-9 8-5 11-16 6-30-5-15-2-21 9-21 9 0 16-4 16-10 0-5-6-10-14-10s-13-10-13-25c0-14 5-25 12-25 14 0 28-35 25-63-1-13 4-17 17-15s19-4 21-24c2-14 10-32 18-38 8-7 14-19 14-27s7-27 15-43c13-25 13-29-1-34-27-10-44-7-44 9 0 8-4 15-10 15-5 0-10 7-10 16 0 12-9 15-37 13-21-2-54 1-74 5-27 6-45 3-69-9-18-9-41-15-51-12s-19 1-21-3c-2-5-22-11-44-14-32-3-47 0-62 15-12 10-26 19-32 19-15 0-12 20 5 26 8 4 15 12 15 20 0 7 9 18 20 24 29 15 25 27-15 46-19 9-35 20-35 25s-5 9-11 9c-5 0-8-4-4-9 3-5 1-12-5-16s-10 6-10 24c0 20 5 31 14 31 21 0 31 21 16 30-10 6-8 15 9 38 11 17 18 37 15 46-4 9 0 18 10 22 14 5 14 8 0 30-13 18-14 30-6 53 6 16 8 32 5 35-4 3 1 21 10 38 9 18 18 41 21 51s19 23 36 28c18 7 30 18 30 28s3 20 6 24c9 8 54-14 54-27zm-1700-68c0-5-4-8-10-8-5 0-10 10-10 23 0 18 2 19 10 7 5-8 10-18 10-22zm200-158c0-5-4-10-10-10-5 0-10 5-10 10 0 6 5 10 10 10 6 0 10-4 10-10zm-33-62c7 20 26 14 20-7-3-11 1-22 9-25 7-3 11-12 8-21-4-8-1-15 7-15 7 0 9-3 6-7-4-3-1-13 6-22 8-9 17-25 21-36 6-16 0-13-24 10-37 35-101 145-93 158 3 6 13-3 21-19 9-16 17-24 19-16zm145-157c18-10 60-22 93-26 75-8 95-14 95-27 0-22-181 14-215 42-14 12-20 30-11 30 3 0 20-9 38-19zm2758-1c0-5-4-10-10-10-5 0-10 5-10 10 0 6 5 10 10 10 6 0 10-4 10-10zm-3100-10c0-5-5-10-11-10s-8-7-5-16c4-9 1-23-5-30-8-10-8-18-1-26 10-14 10-53-1-64-4-4-7-19-7-33 0-20 2-23 10-11 8 13 11 13 22 1 10-11 10-14 1-18-7-3-13-11-13-19 0-17-12-18-28-2-9 9-12 8-12-6 0-9 4-25 9-34 8-15-2-108-12-118-2-2-13-1-25 3-21 5-22 9-17 104 2 61 9 109 19 126 14 27 38 110 36 126-1 9 23 36 33 37 4 0 7-4 7-10zm3040-15c-6-8-9-19-5-25 8-14 3-13-31 5-19 10-23 16-13 19 8 2 21 7 29 9 27 9 33 7 20-8zm-76-31c9-36 1-41-33-21-16 9-39 17-52 17-26 0-15 15 16 23 48 11 63 7 69-19zm120 0c4-10 1-14-6-12-15 5-23 28-10 28 5 0 13-7 16-16zm-3054-15c0-6-4-7-10-4-5 3-10 11-10 16 0 6 5 7 10 4 6-3 10-11 10-16zm365-10c5-5 28-9 51-9 59 0 105-11 101-24-2-6-12-10-22-9s-24-5-31-12c-8-7-23-11-35-8-13 4-25 0-30-9-11-19-79-23-79-4 0 7 7 19 15 26 23 19 18 27-20 40-54 18-57 34-4 26 24-4 48-11 54-17zm2735-30c7-11 9-23 7-26-3-2 6-27 20-55s27-64 28-79c1-16 7-34 12-41 19-24 22-59 6-65-8-3-18-1-22 4-3 6-16 13-28 17-13 4-23 12-23 17s-7 9-15 9c-19 0-19 14 1 34 8 9 11 16 5 16-5 0-13-4-16-10-11-18-22-11-35 21-10 22-10 33-2 41s5 17-13 34c-29 27-33 54-7 52 9-1 30 0 46 0 28 2 28 2 12 27-14 21-14 25-2 25 9 0 20-9 26-21zm-120 1c0-5-4-10-10-10-5 0-10 5-10 10 0 6 5 10 10 10 6 0 10-4 10-10zm-2696-71c-3-5-10-7-15-3-5 3-7 10-3 15 3 5 10 7 15 3 5-3 7-10 3-15zm-301 4c-7-2-19-2-25 0-7 3-2 5 12 5s19-2 13-5zm162-33c3-5 2-10-4-10-5 0-13 5-16 10-3 6-2 10 4 10 5 0 13-4 16-10zm135-21c0-12-7-19-18-19-10 0-23-5-29-11-8-8-17-7-32 3-28 17-22 32 14 35 15 1 33 7 38 12 14 14 27 4 27-20zm1722 16c0-5-5-11-11-13s-11 4-11 13 5 15 11 13 11-8 11-13zm-1977-4c3-5 1-12-5-16-5-3-10 1-10 9 0 18 6 21 15 7zm3170-31c3-5 1-10-4-10-6 0-11 5-11 10 0 6 2 10 4 10 3 0 8-4 11-10zm-3183-32c-15-15-26-4-18 18 5 13 9 15 18 6s9-15 0-24zm128 3c0-5-9-11-20-14-22-6-28 8-7 16 19 8 27 8 27-2zm109-34c14-17 5-26-19-20-11 3-16 11-13 19 7 18 17 18 32 1zm-235-6c3-5-1-11-9-15-9-3-15 0-15 9 0 16 16 20 24 6zm168-13c-6-6-8-17-5-24 3-9-2-14-16-14-12 0-21-5-21-11 0-5-4-8-9-4-11 6 11 54 30 66 17 10 34 0 21-13zm-182-38c0-5-2-10-4-10-3 0-8 5-11 10-3 6-1 10 4 10 6 0 11-4 11-10zm80-40c0-5-4-10-10-10-5 0-10 5-10 10 0 6 5 10 10 10 6 0 10-4 10-10zm-140-20c0-5-4-10-10-10-5 0-10 5-10 10 0 6 5 10 10 10 6 0 10-4 10-10zm130-30c0-11-4-20-10-20-5 0-10 9-10 20s5 20 10 20c6 0 10-9 10-20zm3124 4c10-25 1-27-19-4-15 17-16 20-3 20 9 0 19-7 22-16zm22-76c13-30 7-58-13-58-12 0-13 3-4 14 8 10 9 16 1 21-12 7-14 45-2 45 5 0 13-10 18-22zm-3346-18c0-5-5-10-11-10-5 0-7 5-4 10 3 6 8 10 11 10 2 0 4-4 4-10zm190 0c0-5-4-10-10-10-5 0-10 5-10 10 0 6 5 10 10 10 6 0 10-4 10-10zm3165-70c3-5 1-10-4-10-6 0-11 5-11 10 0 6 2 10 4 10 3 0 8-4 11-10zm-3375-112c0-19-2-20-10-8-13 19-13 30 0 30 6 0 10-10 10-22zm20-94c0-8-7-14-15-14-10 0-15 10-15 26 0 22 2 25 15 14 8-7 15-19 15-26zm-23-76c-3-7-5-2-5 12s2 19 5 13c2-7 2-19 0-25zm20-79c2-17-1-18-13-9-17 15-18 30-1 30 7 0 13-9 14-21zm-24-131c-10-11-19-15-21-8-5 15 18 41 30 34 5-3 1-15-9-26zm107-2328c0-5-7-10-15-10s-15 5-15 10c0 6 7 10 15 10s15-4 15-10zm3016-267c-10-10-19 5-10 18 6 11 8 11 12 0 2-7 1-15-2-18zm-3246-63c0-11-4-20-10-20-5 0-10 9-10 20s5 20 10 20c6 0 10-9 10-20zm30-10c0-5-5-10-11-10-5 0-7 5-4 10 3 6 8 10 11 10 2 0 4-4 4-10zm40-10c0-5-4-10-10-10-5 0-10 5-10 10 0 6 5 10 10 10 6 0 10-4 10-10zm3077-20c3 0 12 8 20 18 14 16 14 16 9-1-3-10-6-23-6-28s-6-9-14-9c-14 0-27 22-25 43 1 7 3 4 6-5 2-10 7-18 10-18zm563-56c0-8-4-12-10-9-5 3-10 10-10 16 0 5 5 9 10 9 6 0 10-7 10-16zm-3461-68c19-22 22-56 5-56-8 0-14 9-14 19 0 11-4 23-10 26-12 8-13 25-1 25 5 0 14-6 20-14zm3371-26c0-13-28-25-38-16-3 4 0 11 8 16 20 13 30 12 30 0zm26-35c-26-20-39-9-18 15 11 14 19 17 27 9 7-7 4-15-9-24zm-53-9c9-7 17-19 17-25 0-7 8-10 18-7 11 3 24-4 35-20 18-25 18-26 1-39-21-15-34-11-34 12 0 11-6 14-22 10-31-8-68 24-68 57 0 29 23 34 53 12zm137-6c0-5-4-10-10-10-5 0-10 5-10 10 0 6 5 10 10 10 6 0 10-4 10-10zm-20-35v-20c0-16-14-6-16 13-2 12 1 22 6 22 6 0 10-7 10-15z"/>
<path d="m2646 5831c-3-5 1-14 8-20 16-13 32 2 21 19-8 12-22 13-29 1z"/>
<path d="m4225 5830c3-5 10-10 16-10 5 0 9 5 9 10 0 6-7 10-16 10-8 0-12-4-9-10z"/>
<path d="m4520 5830c0-5 5-10 10-10 6 0 10 5 10 10 0 6-4 10-10 10-5 0-10-4-10-10z"/>
<path d="m2720 5790c0-5 5-10 11-10 5 0 7 5 4 10-3 6-8 10-11 10-2 0-4-4-4-10z"/>
<path d="m2840 5689c0-5 5-7 10-4 6 3 10 8 10 11 0 2-4 4-10 4-5 0-10-5-10-11z"/>
<path d="m2643 5575c-9-24 1-27 15-5 8 13 8 20 2 20s-13-7-17-15z"/>
<path d="m1937 5513c-4-3-7-11-7-17s5-5 12 2c6 6 9 14 7 17-3 3-9 2-12-2z"/>
<path d="m2200 5425c0-8 4-15 9-15s11 7 15 15c3 9 0 15-9 15-8 0-15-7-15-15z"/>
<path d="m1395 730c3-5 13-10 21-10s14 5 14 10c0 6-9 10-21 10-11 0-17-4-14-10z"/>
<path d="m965 600c-4-6-10-8-14-5-20 12-92-39-146-104-33-38-68-70-77-70-14-1-16-7-12-31 5-22 2-31-9-36-9-3-14-11-11-19 3-7-2-15-10-18-9-4-16-16-16-27 0-14-7-20-23-20-27 0-52-49-42-81 6-17 4-21-8-16-9 3-21-1-27-9-7-8-22-14-33-14-20 0-20-1-2-13 13-10 15-16 6-21-6-4-18-3-25 3-20 16-50 3-35-15 6-8 19-14 28-14 17 0 44-34 35-43-3-3-30 6-60 19-64 28-68 29-60 9 3-9 0-15-8-15s-16-7-20-15c-3-8-13-15-23-15-17-1-16-2 1-15 28-21 45-19 39 5-5 19-2 21 48 17 44-3 53-6 51-20-3-15 8-17 91-17 51 0 97 3 101 7 10 10 46 11 46 1 0-5 53-8 119-6 66 1 117 6 115 10-3 5 2 8 10 8s20 9 26 21c9 16 8 24-4 38-10 11-12 21-6 27 7 7 5 17-4 30-8 10-18 16-22 12s-1-14 6-23c10-13 9-15-9-15-11 0-21 6-21 13-1 29-60 76-60 46 0-5-15-17-32-25-18-8-41-20-50-26-9-7-20-9-24-5-11 10 25 45 50 49 11 2 20 6 19 11-2 4-3 22-3 40 0 17-4 27-8 22-4-6-20-17-35-25-25-12-29-12-37 0-7 11-5 16 5 18 20 4 19 22 0 22s-20 44-1 59c8 7 27 16 43 21 24 7 25 8 6 9-24 1-31 15-13 26 6 4 8 11 4 16-8 14 90 105 136 126 32 15 40 23 40 47 0 21 4 27 15 22 26-9 16 10-10 22-31 15-32 15-40 2zm-25-493c0-20-21-37-46-37-13 0-24-8-27-20-6-25-34-37-50-21-9 9-6 13 11 18 29 7 23 27-8 28-13 0-25 5-27 11-5 16 29 23 77 17 26-4 40-2 40 6 0 6 7 11 15 11s15-6 15-13z"/>
<path d="m1720 584c0-8 5-12 10-9 6 4 8 11 5 16-9 14-15 11-15-7z"/>
<path d="m1040 559c0-5 5-7 10-4 6 3 10 8 10 11 0 2-4 4-10 4-5 0-10-5-10-11z"/>
<path d="m1780 546c0-9 5-16 10-16 6 0 10 4 10 9 0 6-4 13-10 16-5 3-10-1-10-9z"/>
<path d="m5322 500c-11-18-6-25 15-17 9 3 12 37 4 37-4 0-12-9-19-20z"/>
<path d="m1248 453c-32-2-58-7-58-11 0-9 126 1 136 11 4 4 1 6-7 5s-40-3-71-5z"/>
<path d="m1230 381c0-5-10-11-22-13-31-4-30-33 1-33 13 0 26-5 28-11 6-19-55-40-143-47-18-1-38-8-46-14-7-7-36-13-63-15-42-3-50-6-50-23 0-11 7-20 15-20s14 6 13 12c-3 15 40 28 63 19 15-6 15-8-1-26-10-11-26-20-36-20s-21-5-24-11c-4-6-1-10 6-8 29 3 47-2 69-21 13-11 20-23 17-26-6-6 54-44 69-44 3 0 2 9-1 21-6 18-4 20 14 14 12-3 21-2 21 4 0 20-21 22-46 6-14-9-29-14-32-10-9 9 39 45 61 45 9 0 17 5 17 11s10 19 23 30l22 18-25 2c-14 1-33 0-44-1s-17 3-14 12c3 7 23 14 46 16 27 2 42 8 42 16s11 17 25 20c16 4 25 13 25 25 0 32 11 51 30 51 11 0 22 5 25 10 4 7-2 9-18 5-14-4-35-2-46 5-12 6-21 7-21 1zm-130-159c0-10 5-23 12-30 14-14 11-18-24-27-34-9-46 14-30 51 13 28 42 32 42 6z"/>
<path d="m1105 367c-10-8-14-17-8-20 5-3 17 3 26 14 19 22 9 25-18 6z"/>
<path d="m868 333c7-3 16-2 19 1 4 3-2 6-13 5-11 0-14-3-6-6z"/>
<path d="m1003 325c-3-9-3-19 1-22 3-4 6 1 6 10 0 8 6 18 13 20 9 4 9 6-1 6-7 1-15-6-19-14z"/>
<path d="m5775 330c-3-5-3-14 0-20 3-5 2-10-3-10-12 0-3-42 11-52 29-19 38 9 28 85-1 11-29 9-36-3z"/>
<path d="m308 303c7-3 16-2 19 1 4 3-2 6-13 5-11 0-14-3-6-6z"/>
<path d="m235 280c-3-5-1-10 4-10 6 0 11 5 11 10 0 6-2 10-4 10-3 0-8-4-11-10z"/>
<path d="m5952 273c-17-12-26-13-34-5-16 16-28 15-28-1 0-7-9-18-21-25s-18-16-15-19c3-4-3-12-13-19s-21-22-24-33c-4-16 2-14 39 11 24 16 48 37 54 46 8 15 11 15 20 2 13-20 13-40-1-40-5 0-7-5-3-11 3-6 16-8 29-5 17 4 24 1 28-16 5-18 8-19 21-9 13 11 21 9 47-13 51-43 74-30 47 29-12 26-23 32-33 15-10-16-28-12-21 5 4 11-1 15-17 15-30 0-55 50-32 66 36 27-5 33-43 7zm148-133c0-5-4-10-10-10-5 0-10 5-10 10 0 6 5 10 10 10 6 0 10-4 10-10z"/>
<path d="m555 200c-3-5-1-10 4-10 6 0 11 5 11 10 0 6-2 10-4 10-3 0-8-4-11-10z"/>
<path d="m1187 166c-4-10-5-21-2-24 9-9 17 6 13 25-3 17-4 17-11-1z"/>
<path d="m6150 140c0-5 6-10 14-10s18 5 21 10c3 6-3 10-14 10-12 0-21-4-21-10z"/>
<path d="m6280 130c0-5 5-10 10-10 6 0 10 5 10 10 0 6-4 10-10 10-5 0-10-4-10-10z"/>
<path d="m6216 114c-11-8-32-14-48-14-15 0-28-4-28-10 0-15 63-12 84 3 11 8 17 19 15 25-3 7-10 6-23-4z"/>
<path d="m5918 113c7-3 16-2 19 1 4 3-2 6-13 5-11 0-14-3-6-6z"/>
<path d="m1066 72c-3-6-1-14 5-17 15-10 25 3 12 16-7 7-13 7-17 1z"/>
<path d="m5950 67c0-14 30-19 45-7 8 6 18 9 23 7 4-3 14-1 22 4 10 6-1 9-37 7-29-2-53-7-53-11z"/>
<path d="m6270 40c0-5 5-10 10-10 6 0 10 5 10 10 0 6-4 10-10 10-5 0-10-4-10-10z"/>
<path d="m6140 25c0-17-26-21-32-4-2 7-9 5-17-5-12-14-9-16 23-16 29 0 36 4 36 20 0 11-2 20-5 20s-5-7-5-15z"/>
<path d="m6310 31c0-5-12-14-27-19l-28-10 26-1c24-1 49 15 49 31 0 4-4 8-10 8-5 0-10-4-10-9z"/>
<path d="m5935 21c6-5 23-13 39-17 22-5 28-4 24 7-2 8-20 15-39 17-23 2-31 0-24-7z"/>
</g>
</svg>
